<?xml version="1.0"?><!DOCTYPE svg  PUBLIC '-//W3C//DTD SVG 1.1//EN'  'http://www.w3.org/Graphics/SVG/1.1/DTD/svg11.dtd'><svg height="512px" style="enable-background:new 0 0 512 512;" version="1.1" viewBox="0 0 512 512" width="512px" xml:space="preserve" xmlns="http://www.w3.org/2000/svg" xmlns:xlink="http://www.w3.org/1999/xlink"><g id="_x31_8-analytics"><g><path d="M313.328,471.622V169.75H183.385c-7.913,0-14.334,6.439-14.334,14.377v129.374H40.849    c-7.917,0-14.339,6.438-14.339,14.373v143.748c0,7.934,6.422,14.377,14.339,14.377h142.536h0.822h142.54    c0.155,0,0.306-0.019,0.46-0.023C319.504,485.729,313.328,479.399,313.328,471.622z" style="fill:#FFC515;"/><path d="M471.152,26.001H327.795c-7.919,0-14.34,6.439-14.34,14.379v129.37v301.872    c0,7.777,6.176,14.107,13.88,14.354c0.154,0.005,0.305,0.023,0.46,0.023h143.357c7.914,0,14.338-6.443,14.338-14.377V40.38    C485.49,32.44,479.068,26.001,471.152,26.001z" style="fill:#F57E02;"/></g></g><g id="Layer_1"/></svg>