<?xml version="1.0"?><svg id="Layer_1" style="enable-background:new 0 0 32 32;" version="1.1" viewBox="0 0 32 32" xml:space="preserve" xmlns="http://www.w3.org/2000/svg" xmlns:xlink="http://www.w3.org/1999/xlink"><style type="text/css">
	.st0{fill:#FBC34E;}
	.st1{opacity:0.05;}
</style><g id="Flash"><g><path class="st0" d="M27.59,16.53c0.09,0.78-0.22,1.54-0.83,2.03l-6.24,4.98L16,27.28l-2.66,2.2C12.91,29.83,12.41,30,11.9,30    c-0.48,0-0.96-0.16-1.37-0.48c-0.85-0.66-1.12-1.75-0.67-2.73l2.81-6.02c0.04-0.08,0.03-0.15,0.01-0.19    c-0.01-0.05-0.05-0.11-0.13-0.14l-6.86-3.2c-0.71-0.33-1.19-0.99-1.28-1.77c-0.09-0.78,0.22-1.54,0.83-2.03l6.24-4.98L16,4.72    l2.66-2.2c0.83-0.68,1.96-0.7,2.81-0.04s1.12,1.75,0.67,2.73l-2.81,6.02c-0.04,0.08-0.03,0.15-0.01,0.19    c0.01,0.05,0.05,0.11,0.13,0.14l6.86,3.2C27.02,15.09,27.5,15.75,27.59,16.53z"/></g><g class="st1"><path d="M27.59,16.53c0.09,0.78-0.22,1.54-0.83,2.03l-6.24,4.98L16,27.28V4.72l2.66-2.2c0.83-0.68,1.96-0.7,2.81-0.04    s1.12,1.75,0.67,2.73l-2.81,6.02c-0.04,0.08-0.03,0.15-0.01,0.19c0.01,0.05,0.05,0.11,0.13,0.14l6.86,3.2    C27.02,15.09,27.5,15.75,27.59,16.53z"/></g></g></svg>